<svg width="648" height="633" viewBox="0 0 648 633" fill="none" xmlns="http://www.w3.org/2000/svg">
<g clip-path="url(#clip0_1124_3)">
<path d="M411.147 142.174H236.638C232.661 142.178 228.848 143.76 226.036 146.572C223.224 149.384 221.642 153.197 221.638 157.174V545.024L219.638 545.634L176.828 558.744C174.799 559.362 172.607 559.151 170.734 558.155C168.861 557.16 167.46 555.461 166.838 553.434L39.4975 137.484C38.8778 135.455 39.089 133.263 40.0847 131.39C41.0804 129.516 42.7792 128.115 44.8076 127.494L110.778 107.294L302.028 48.7537L367.997 28.5536C369.001 28.2447 370.057 28.1367 371.102 28.2359C372.148 28.3351 373.164 28.6396 374.092 29.1319C375.02 29.6242 375.841 30.2946 376.51 31.1048C377.178 31.915 377.681 32.8491 377.988 33.8537L410.538 140.174L411.147 142.174Z" fill="#35383F"/>
<path d="M449.224 140.174L409.994 12.034C409.342 9.89894 408.275 7.91342 406.854 6.1909C405.434 4.46837 403.688 3.04261 401.717 1.99507C399.745 0.947523 397.586 0.298728 395.364 0.0857789C393.141 -0.12717 390.899 0.0999007 388.764 0.753992L296.014 29.144L104.775 87.694L12.0245 116.094C7.71586 117.417 4.10815 120.396 1.99329 124.376C-0.12157 128.356 -0.570796 133.013 0.744236 137.324L134.824 575.254C135.893 578.734 138.048 581.78 140.975 583.945C143.901 586.11 147.444 587.28 151.085 587.284C152.769 587.285 154.445 587.032 156.054 586.534L219.634 567.074L221.634 566.454V564.364L219.634 564.974L155.464 584.624C151.661 585.783 147.554 585.387 144.042 583.522C140.531 581.656 137.903 578.474 136.734 574.674L2.66465 136.734C2.08574 134.851 1.88397 132.872 2.0709 130.911C2.25782 128.95 2.82975 127.045 3.75397 125.305C4.67819 123.565 5.93655 122.025 7.45694 120.772C8.97734 119.519 10.7299 118.579 12.6144 118.004L105.364 89.604L296.605 31.064L389.355 2.66401C390.784 2.22781 392.27 2.0054 393.764 2.00401C396.971 2.01121 400.092 3.04516 402.669 4.95443C405.246 6.8637 407.144 9.54794 408.085 12.614L447.134 140.174L447.754 142.174H449.835L449.224 140.174Z" fill="#3F3D56"/>
<path d="M122.679 127.821C120.752 127.82 118.876 127.201 117.326 126.055C115.776 124.909 114.634 123.297 114.068 121.454L101.187 79.3825C100.841 78.2524 100.721 77.0651 100.834 75.8886C100.947 74.7121 101.29 73.5693 101.845 72.5255C102.399 71.4817 103.154 70.5574 104.066 69.8053C104.977 69.0532 106.028 68.4881 107.159 68.1423L283.098 14.2785C285.38 13.582 287.845 13.8195 289.953 14.9389C292.06 16.0583 293.638 17.9681 294.338 20.2492L307.219 62.3215C307.915 64.6038 307.677 67.0691 306.558 69.1764C305.438 71.2837 303.529 72.861 301.248 73.5622L125.309 127.426C124.457 127.687 123.57 127.821 122.679 127.821Z" fill="#E21221"/>
<path d="M190.152 44.9546C201.198 44.9546 210.152 36.0003 210.152 24.9546C210.152 13.9089 201.198 4.95459 190.152 4.95459C179.107 4.95459 170.152 13.9089 170.152 24.9546C170.152 36.0003 179.107 44.9546 190.152 44.9546Z" fill="#E21221"/>
<path d="M190.153 37.6193C197.147 37.6193 202.818 31.9491 202.818 24.9547C202.818 17.9602 197.147 12.29 190.153 12.29C183.158 12.29 177.488 17.9602 177.488 24.9547C177.488 31.9491 183.158 37.6193 190.153 37.6193Z" fill="white"/>
<path d="M602.637 582.174H264.637C262.383 582.171 260.223 581.275 258.629 579.681C257.036 578.088 256.139 575.927 256.137 573.674V168.674C256.139 166.42 257.036 164.26 258.629 162.666C260.223 161.073 262.383 160.176 264.637 160.174H602.637C604.89 160.176 607.051 161.073 608.644 162.666C610.238 164.26 611.134 166.42 611.137 168.674V573.674C611.134 575.927 610.238 578.088 608.644 579.681C607.051 581.275 604.89 582.171 602.637 582.174Z" fill="#35383F"/>
<path d="M447.137 140.174H236.637C232.13 140.18 227.81 141.973 224.623 145.16C221.436 148.347 219.643 152.667 219.637 157.174V564.974L221.637 564.364V157.174C221.642 153.197 223.223 149.385 226.035 146.573C228.847 143.761 232.66 142.179 236.637 142.174H447.757L447.137 140.174ZM630.637 140.174H236.637C232.13 140.18 227.81 141.973 224.623 145.16C221.436 148.347 219.643 152.667 219.637 157.174V615.174C219.643 619.681 221.436 624.001 224.623 627.188C227.81 630.374 232.13 632.167 236.637 632.174H630.637C635.143 632.167 639.464 630.374 642.651 627.188C645.837 624.001 647.63 619.681 647.637 615.174V157.174C647.63 152.667 645.837 148.347 642.651 145.16C639.464 141.973 635.143 140.18 630.637 140.174ZM645.637 615.174C645.632 619.151 644.05 622.963 641.238 625.775C638.426 628.587 634.613 630.169 630.637 630.174H236.637C232.66 630.169 228.847 628.587 226.035 625.775C223.223 622.963 221.642 619.151 221.637 615.174V157.174C221.642 153.197 223.223 149.385 226.035 146.573C228.847 143.761 232.66 142.179 236.637 142.174H630.637C634.613 142.179 638.426 143.761 641.238 146.573C644.05 149.385 645.632 153.197 645.637 157.174V615.174Z" fill="#3F3D56"/>
<path d="M525.637 184.174H341.637C339.251 184.171 336.963 183.222 335.276 181.535C333.588 179.848 332.639 177.56 332.637 175.174V131.174C332.639 128.788 333.589 126.5 335.276 124.813C336.963 123.126 339.251 122.177 341.637 122.174H525.637C528.023 122.177 530.31 123.126 531.998 124.813C533.685 126.5 534.634 128.788 534.637 131.174V175.174C534.634 177.56 533.685 179.848 531.998 181.535C530.31 183.222 528.023 184.171 525.637 184.174Z" fill="#E21221"/>
<path d="M433.637 125.174C444.682 125.174 453.637 116.22 453.637 105.174C453.637 94.1281 444.682 85.1738 433.637 85.1738C422.591 85.1738 413.637 94.1281 413.637 105.174C413.637 116.22 422.591 125.174 433.637 125.174Z" fill="#E21221"/>
<path d="M433.635 117.356C440.363 117.356 445.817 111.902 445.817 105.174C445.817 98.4462 440.363 92.9922 433.635 92.9922C426.907 92.9922 421.453 98.4462 421.453 105.174C421.453 111.902 426.907 117.356 433.635 117.356Z" fill="white"/>
</g>
<defs>
<clipPath id="clip0_1124_3">
<rect width="647.636" height="632.174" fill="white"/>
</clipPath>
</defs>
</svg>
