<svg width="319" height="212" viewBox="0 0 319 212" fill="none" xmlns="http://www.w3.org/2000/svg">
<g clip-path="url(#clip0_916_17)">
<path d="M161.602 59.5857C158.757 54.8774 155.387 49.8504 150.109 48.313C143.996 46.5327 137.716 50.0695 132.39 53.5595C116.461 63.9972 101.122 75.3087 86.4414 87.4422L86.4575 87.625C97.8867 86.8361 109.316 86.0473 120.745 85.2585C129.003 84.6885 137.544 84.04 144.841 80.1304C147.611 78.6468 150.31 76.6651 153.448 76.527C157.346 76.3555 160.746 79.0804 163.417 81.9274C179.219 98.7684 183.792 124.522 201.52 139.318C190.341 111.726 176.993 85.0651 161.602 59.5857Z" fill="#F2F2F2"/>
<path d="M258.735 202.427C256.988 200.218 256.274 199.701 254.55 197.472C240.515 179.305 227.323 160.524 214.975 141.13C206.587 127.958 198.616 114.533 191.06 100.855C187.463 94.3521 183.964 87.7984 180.564 81.1937C177.926 76.0726 175.347 70.9208 172.826 65.7384C172.105 64.2582 171.405 62.7712 170.708 61.2808C169.066 57.776 167.454 54.2542 165.724 50.797C163.752 46.8566 161.352 42.7257 157.73 40.0783C156.083 38.8241 154.112 38.0652 152.049 37.8904C149.101 37.6998 146.382 38.918 143.825 40.2485C125.118 50.0109 107.606 62.2506 91.7654 76.1781C75.8847 90.1368 61.6898 105.907 49.4704 123.167C49.0965 123.701 48.2125 123.19 48.5898 122.653C50.0756 120.55 51.5909 118.47 53.1356 116.412C72.3426 90.8459 95.8934 68.8604 122.711 51.4605C127.223 48.5341 131.82 45.745 136.501 43.0931C138.861 41.7559 141.231 40.4356 143.641 39.197C146.004 37.9822 148.513 36.8899 151.213 36.8491C160.399 36.7062 165.156 47.1186 168.423 54.1249C169.45 56.3298 170.489 58.528 171.541 60.7194C175.515 69.0391 179.643 77.2828 183.923 85.4505C186.565 90.4934 189.265 95.5068 192.022 100.491C200.603 116.011 209.724 131.216 219.385 146.108C232.182 165.834 244.877 183.259 259.456 201.705C259.857 202.216 259.14 202.944 258.735 202.427Z" fill="#E4E4E4"/>
<path d="M90.8567 71.0366C90.3229 70.4411 89.7925 69.8457 89.2553 69.2502C85.019 64.5612 80.4735 59.9267 74.6561 57.2385C71.8823 55.9163 68.8544 55.2138 65.7823 55.1798C62.6068 55.19 59.5027 56.0237 56.5686 57.1909C55.1814 57.7455 53.8248 58.375 52.4887 59.0453C50.9621 59.8144 49.4627 60.6344 47.9702 61.4613C45.1686 63.013 42.4034 64.6327 39.6745 66.3204C34.2447 69.6789 28.9851 73.2938 23.8954 77.1649C21.257 79.1726 18.673 81.246 16.1435 83.3852C13.7908 85.3724 11.4857 87.4129 9.22814 89.5067C8.74538 89.9525 8.02456 89.2311 8.50732 88.7853C9.1023 88.2307 9.7041 87.6794 10.3059 87.135C12.0058 85.597 13.733 84.0884 15.4874 82.6093C18.6866 79.9076 21.9687 77.3101 25.3336 74.8171C30.5661 70.9379 35.9787 67.322 41.5715 63.9691C44.3663 62.295 47.1996 60.6911 50.0713 59.1576C50.9384 58.6949 51.8156 58.2423 52.7029 57.8136C54.7163 56.7971 56.8084 55.9448 58.9587 55.2649C62.0047 54.2787 65.2275 53.9618 68.4071 54.3359C71.4771 54.7829 74.4349 55.807 77.1245 57.3542C82.8363 60.5494 87.2663 65.4901 91.5775 70.3118C92.0128 70.8018 91.2953 71.5266 90.8567 71.0366Z" fill="#E4E4E4"/>
<path d="M207.889 119.627L221.576 114.616L228.372 112.129C230.585 111.319 232.793 110.396 235.081 109.816C237.069 109.248 239.18 109.275 241.154 109.894C242.913 110.545 244.524 111.545 245.89 112.832C247.286 114.118 248.584 115.506 249.775 116.984C251.254 118.764 252.712 120.562 254.176 122.354C260.219 129.751 266.223 137.18 272.187 144.64C278.151 152.101 284.075 159.594 289.959 167.118C295.858 174.66 301.716 182.234 307.533 189.84C308.246 190.772 308.958 191.704 309.669 192.637C310.062 193.152 310.949 192.644 310.55 192.121C304.69 184.439 298.789 176.789 292.847 169.169C286.89 161.532 280.892 153.927 274.853 146.354C268.814 138.782 262.734 131.242 256.614 123.735C255.089 121.865 253.562 119.997 252.032 118.131C250.742 116.557 249.466 114.966 248.05 113.501C245.452 110.812 242.206 108.435 238.321 108.371C236.036 108.333 233.825 109.058 231.703 109.827C229.415 110.655 227.132 111.499 224.847 112.336L211.064 117.381L207.618 118.642C207.007 118.866 207.271 119.853 207.889 119.627Z" fill="#E4E4E4"/>
<path d="M72.8559 63.138C65.9005 59.5603 56.9931 60.261 50.6016 64.7308C62.7929 66.8358 74.8509 69.6525 86.7137 73.1662C81.7876 70.2769 77.9341 65.7501 72.8559 63.138Z" fill="#F2F2F2"/>
<path d="M50.5324 64.7188L49.1934 65.808C49.6463 65.4268 50.1171 65.0693 50.6008 64.7311C50.578 64.7271 50.5552 64.7227 50.5324 64.7188Z" fill="#F2F2F2"/>
<path d="M245.375 119.676C244.027 118.035 242.571 116.316 240.555 115.649L238.674 115.724C252.996 141.053 272.34 163.185 295.517 180.762C278.803 160.4 262.089 140.038 245.375 119.676Z" fill="#F2F2F2"/>
<path d="M128.378 106.136C129.249 109.302 131.211 112.057 133.916 113.915C134.962 114.628 136.199 115.312 136.557 116.526C136.745 117.301 136.629 118.118 136.233 118.809C135.838 119.492 135.356 120.12 134.801 120.68L134.75 120.87C132.155 119.331 129.686 117.384 128.252 114.727C126.818 112.07 126.618 108.588 128.378 106.136Z" fill="#F2F2F2"/>
<path d="M214.791 181.485C215.661 184.651 217.623 187.407 220.328 189.265C221.374 189.978 222.611 190.661 222.969 191.876C223.158 192.65 223.042 193.467 222.645 194.159C222.25 194.841 221.768 195.47 221.213 196.03L221.163 196.22C218.567 194.681 216.098 192.733 214.664 190.077C213.23 187.42 213.03 183.938 214.791 181.485Z" fill="#F2F2F2"/>
<path d="M42.3354 176.29C43.2061 179.456 45.1677 182.212 47.873 184.07C48.9189 184.782 50.1564 185.466 50.5142 186.681C50.7024 187.455 50.5864 188.272 50.1902 188.963C49.7947 189.646 49.3134 190.275 48.7582 190.835L48.7075 191.025C46.1119 189.485 43.6427 187.538 42.2089 184.881C40.7752 182.224 40.575 178.742 42.3354 176.29Z" fill="#F2F2F2"/>
<path d="M240.79 37.8606C251.236 37.8606 259.704 29.3852 259.704 18.9303C259.704 8.47538 251.236 0 240.79 0C230.343 0 221.875 8.47538 221.875 18.9303C221.875 29.3852 230.343 37.8606 240.79 37.8606Z" fill="#E21221"/>
<path d="M274.922 4.40611C265.756 3.16601 255.29 8.12486 252.914 17.0722C252.316 15.4813 251.227 14.1222 249.806 13.1911C248.385 12.26 246.705 11.8051 245.008 11.8923C243.312 11.9794 241.687 12.6039 240.369 13.6757C239.051 14.7475 238.107 16.2111 237.674 17.8549L238.723 18.6071C258.368 22.8588 278.702 22.7667 298.307 18.3375C291.931 11.6307 284.089 5.64618 274.922 4.40611Z" fill="#F0F0F0"/>
<path d="M235.61 29.6463C226.443 28.4062 215.978 33.3651 213.602 42.3124C213.003 40.7216 211.915 39.3624 210.493 38.4313C209.072 37.5002 207.392 37.0454 205.696 37.1325C204 37.2196 202.375 37.8442 201.056 38.916C199.738 39.9878 198.794 41.4513 198.361 43.0951L199.411 43.8474C219.055 48.099 239.39 48.007 258.995 43.5778C252.619 36.8709 244.777 30.8864 235.61 29.6463Z" fill="#F0F0F0"/>
<path d="M315.618 34.4186C315.58 34.4186 315.542 34.4128 315.506 34.4012C217.444 3.36359 131.017 7.42231 75.7805 16.2926C68.2634 17.4993 60.7262 18.8931 53.3783 20.4354C51.5024 20.8287 49.5562 21.2503 47.5939 21.6893C45.2504 22.2116 42.938 22.7495 40.7208 23.2875C39.7632 23.5144 38.8243 23.7431 37.9041 23.9736C36.5102 24.318 35.0959 24.6768 33.5798 25.0712C31.8857 25.5084 30.1644 25.9669 28.4627 26.4342C28.4565 26.4363 28.4502 26.4382 28.4437 26.4396L28.4439 26.44C26.5218 26.9652 24.6099 27.5057 22.7609 28.0454C21.7602 28.3347 20.7939 28.6199 19.8684 28.9016C19.765 28.9302 19.6733 28.9578 19.5804 28.986L19.3816 29.0466C19.2664 29.0817 19.1527 29.1162 19.039 29.1488L19.0317 29.151L19.0319 29.1513L18.7309 29.2449C18.372 29.3536 18.0218 29.4598 17.6773 29.5657C8.57428 32.3742 3.57002 34.3722 3.52059 34.3918C3.47538 34.4099 3.42705 34.4189 3.37834 34.4184C3.32964 34.4178 3.28153 34.4077 3.23675 34.3885C3.19197 34.3693 3.1514 34.3415 3.11735 34.3067C3.08331 34.2718 3.05646 34.2306 3.03834 34.1853C3.02022 34.1401 3.01118 34.0917 3.01174 34.043C3.0123 33.9942 3.02245 33.9461 3.0416 33.9013C3.06075 33.8564 3.08854 33.8158 3.12337 33.7818C3.1582 33.7477 3.1994 33.7208 3.2446 33.7027C3.2944 33.6831 8.32311 31.675 17.4593 28.8559C17.805 28.7497 18.1562 28.6435 18.5162 28.5344L18.7958 28.4474C18.8054 28.4438 18.815 28.4409 18.8247 28.438C18.9379 28.4057 19.0509 28.3713 19.1657 28.3365L19.3649 28.276C19.4642 28.2459 19.562 28.2162 19.6621 28.1886C20.5813 27.9088 21.5509 27.6228 22.5541 27.3324C24.4038 26.7923 26.3175 26.2519 28.2411 25.7259C28.2471 25.7237 28.2532 25.7223 28.2592 25.7205C29.9669 25.2518 31.6945 24.791 33.394 24.3524C34.9125 23.9577 36.3295 23.5981 37.7257 23.253C38.6498 23.0229 39.5905 22.7936 40.5478 22.5654C42.7676 22.0268 45.0847 21.4881 47.4323 20.9647C49.3977 20.5253 51.3472 20.1027 53.2262 19.709C60.5855 18.1641 68.1344 16.7682 75.6629 15.5597C130.978 6.67669 217.53 2.61143 315.729 33.6936C315.814 33.7203 315.886 33.7763 315.932 33.8516C315.979 33.9268 315.997 34.0164 315.984 34.104C315.971 34.1915 315.926 34.2714 315.859 34.3291C315.792 34.3868 315.706 34.4186 315.618 34.4186Z" fill="#CCCCCC"/>
<path d="M97.5361 155.837C97.4076 155.461 97.1915 155.121 96.9056 154.846C96.8 154.748 96.6858 154.659 96.5644 154.582C95.5964 153.936 94.15 153.791 93.2302 154.582C93.1376 154.662 93.052 154.751 92.9743 154.846C92.6999 155.183 92.418 155.514 92.1287 155.837C91.654 156.379 91.1682 156.902 90.6601 157.41C90.5154 157.551 90.3708 157.696 90.2224 157.837C90.1371 157.923 90.0518 158.004 89.9665 158.086C89.6402 158.398 89.3064 158.698 88.9689 158.995C88.7909 159.155 88.6128 159.311 88.4311 159.463C88.1604 159.689 87.8896 159.916 87.6152 160.135C87.5892 160.153 87.5633 160.172 87.5373 160.194C87.5299 160.198 87.5262 160.205 87.5188 160.209C87.515 160.209 87.5113 160.209 87.5076 160.217C87.4976 160.221 87.4887 160.227 87.4817 160.235C87.4001 160.291 87.3444 160.328 87.3037 160.361C87.3185 160.354 87.3333 160.343 87.3482 160.335C87.2814 160.387 87.2109 160.439 87.1442 160.491C86.4951 160.97 85.8313 161.43 85.1526 161.861C83.4734 162.936 81.7097 163.874 79.8788 164.663C79.7564 164.712 79.6303 164.764 79.5042 164.812C74.7105 166.777 69.5104 167.544 64.354 167.046C63.8273 167.005 63.3007 166.95 62.7741 166.879C62.1658 166.79 61.5613 166.683 60.9605 166.56C58.6732 166.103 56.4351 165.427 54.2774 164.541C51.5782 163.304 49.011 161.796 46.6151 160.042C46.2442 159.779 45.8696 159.515 45.4951 159.259C45.9216 158.212 46.3407 157.165 46.7486 156.111C46.9526 155.603 47.1492 155.094 47.342 154.582C48.8589 150.636 50.283 146.654 51.6479 142.656C53.0275 138.606 54.3293 134.533 55.5532 130.437C55.6793 130.021 55.8017 129.605 55.9203 129.189C56.5619 127.025 57.1776 124.856 57.7673 122.683C57.8229 122.471 57.8822 122.263 57.9342 122.052C58.1048 121.428 58.2717 120.804 58.4349 120.181C58.8057 118.774 57.9675 117.093 56.4915 116.755C55.7808 116.572 55.0271 116.673 54.3892 117.036C53.7514 117.399 53.2791 117.995 53.072 118.7C52.9125 119.301 52.7531 119.899 52.5899 120.5C51.8073 123.406 50.984 126.303 50.1199 129.189C49.9938 129.605 49.8677 130.021 49.7416 130.437C47.8353 136.724 45.7423 142.949 43.4627 149.111C43.1882 149.857 42.9101 150.6 42.6282 151.342C42.491 151.705 42.3538 152.069 42.2128 152.433C41.9421 153.149 41.6639 153.866 41.3858 154.582C41.2263 155.001 41.0631 155.421 40.8999 155.837C40.7924 156.1 40.6885 156.364 40.5847 156.623C39.5273 156.243 38.4317 155.98 37.3173 155.837L37.1393 155.814C36.2753 155.71 35.4015 155.718 34.5395 155.837C33.2492 155.987 32.0078 156.42 30.9029 157.103C29.7981 157.787 28.8568 158.705 28.1456 159.793C26.3765 162.581 26.3988 166.567 28.8799 168.936C31.4352 171.374 35.3035 171.356 38.3112 169.83C39.9052 168.967 41.2492 167.706 42.2128 166.17C42.582 165.613 42.9212 165.037 43.229 164.444C43.3069 164.496 43.3848 164.548 43.4627 164.604C43.7594 164.812 44.0561 165.023 44.3491 165.231C46.0562 166.469 47.8552 167.575 49.7304 168.538C53.7626 170.545 58.1029 171.858 62.5701 172.425C62.6702 172.436 62.7666 172.451 62.8668 172.462C63.36 172.525 63.857 172.573 64.354 172.614C71.483 173.152 78.6207 171.692 84.9671 168.397C85.5049 168.119 86.0377 167.827 86.5656 167.521C87.3852 167.046 88.1863 166.541 88.9689 166.007C89.3954 165.717 89.8108 165.424 90.2224 165.116C92.0214 163.79 93.6982 162.306 95.2329 160.681C95.8152 160.068 96.3727 159.436 96.9056 158.784C97.4094 158.25 97.6998 157.55 97.7215 156.816C97.7186 156.481 97.6558 156.15 97.5361 155.837ZM36.1231 164.678C36.201 164.622 36.2789 164.563 36.353 164.504C36.3308 164.559 36.2232 164.622 36.1231 164.678ZM37.3136 163.479C37.2283 163.576 37.1504 163.672 37.0651 163.769C36.8056 164.059 36.5268 164.332 36.2306 164.585C36.1898 164.622 36.1453 164.66 36.1008 164.693C36.1004 164.693 36.0999 164.693 36.0994 164.693C36.099 164.693 36.0985 164.694 36.0982 164.694C36.0978 164.694 36.0976 164.695 36.0974 164.695C36.0972 164.696 36.0971 164.696 36.0971 164.697C36.0436 164.721 35.9915 164.748 35.9413 164.778C35.7819 164.875 35.6187 164.964 35.4518 165.046C35.125 165.166 34.7889 165.259 34.4468 165.324C34.1839 165.343 33.92 165.346 33.6568 165.331H33.6494C33.4677 165.291 33.2882 165.242 33.1116 165.183C33.0226 165.138 32.9373 165.086 32.852 165.034C32.8186 165.005 32.7889 164.975 32.7704 164.957C32.7342 164.923 32.7007 164.887 32.6703 164.849C32.6703 164.848 32.6702 164.848 32.67 164.847C32.6698 164.847 32.6696 164.847 32.6692 164.846C32.6689 164.846 32.6685 164.846 32.668 164.845C32.6675 164.845 32.6671 164.845 32.6666 164.845C32.6258 164.771 32.5813 164.697 32.5405 164.622C32.5384 164.621 32.537 164.618 32.5368 164.615C32.5071 164.522 32.4811 164.426 32.4589 164.329C32.4508 164.16 32.4521 163.99 32.4626 163.821C32.5124 163.584 32.5793 163.35 32.6629 163.123C32.738 162.962 32.8234 162.805 32.9188 162.655C32.9262 162.64 32.9633 162.581 33.0041 162.514C33.0078 162.51 33.0078 162.51 33.0078 162.507C33.0634 162.444 33.119 162.377 33.1784 162.317C33.2785 162.206 33.3861 162.11 33.4936 162.009C33.7028 161.872 33.9195 161.747 34.1427 161.634C34.4967 161.509 34.86 161.411 35.2293 161.341C35.7739 161.298 36.3212 161.303 36.8649 161.356C37.3798 161.445 37.8879 161.571 38.3854 161.731C38.0839 162.317 37.7406 162.88 37.3581 163.416C37.3433 163.438 37.3284 163.461 37.3136 163.479ZM33.1895 162.258C33.1568 162.311 33.1182 162.359 33.0745 162.403C33.1039 162.348 33.1429 162.299 33.1895 162.258Z" fill="#3F3D56"/>
<path d="M86.3878 117.928C86.3544 119.094 86.321 120.259 86.2876 121.425C86.2171 124.012 86.1442 126.6 86.0688 129.19C85.9909 132.104 85.9093 135.016 85.824 137.928C85.7832 139.431 85.7412 140.934 85.6979 142.438C85.583 146.487 85.4692 150.536 85.3567 154.583C85.3456 155.002 85.3308 155.418 85.3196 155.837C85.264 157.845 85.2084 159.853 85.1527 161.862C85.0897 164.04 85.0279 166.219 84.9673 168.398C84.9228 170.031 84.8771 171.666 84.8301 173.301C84.4963 185.153 84.1625 197.005 83.8287 208.857C83.8146 209.591 83.517 210.291 82.9984 210.81C82.4798 211.329 81.7805 211.627 81.0472 211.641C80.3113 211.635 79.6072 211.34 79.0869 210.819C78.5665 210.298 78.2716 209.593 78.2656 208.857C78.4511 202.19 78.639 195.524 78.8293 188.858C78.9962 182.83 79.1656 176.802 79.3374 170.774C79.3931 168.788 79.4487 166.801 79.5043 164.812C79.5896 161.821 79.6737 158.829 79.7565 155.837C79.7677 155.418 79.7825 155.002 79.7936 154.583C79.801 154.215 79.8122 153.851 79.8233 153.484C79.9865 147.675 80.1497 141.865 80.3128 136.053C80.3796 133.767 80.4439 131.479 80.5057 129.19C80.5799 126.581 80.654 123.972 80.7282 121.366C80.7616 120.219 80.7913 119.075 80.8247 117.928C80.8387 117.194 81.1363 116.495 81.655 115.976C82.1736 115.456 82.8729 115.159 83.6062 115.145C84.3421 115.15 85.0461 115.446 85.5665 115.966C86.0869 116.487 86.3818 117.192 86.3878 117.928Z" fill="#3F3D56"/>
<path d="M238.974 118.701C236.057 129.754 232.571 140.65 228.53 151.343C227.415 154.293 226.274 157.236 225.054 160.144L225.335 159.479C224.79 160.865 224.095 162.186 223.262 163.418C223.205 163.498 223.147 163.577 223.089 163.655C223.377 163.286 223.432 163.213 223.253 163.436C223.159 163.548 223.066 163.659 222.968 163.768C222.709 164.059 222.43 164.332 222.134 164.586C222.06 164.65 221.984 164.712 221.907 164.773L222.255 164.503C222.215 164.598 221.931 164.724 221.843 164.778C221.557 164.951 221.259 165.102 220.951 165.231L221.616 164.95C221.111 165.154 220.584 165.298 220.046 165.381L220.786 165.281C220.257 165.355 219.722 165.36 219.192 165.299L219.931 165.398C219.498 165.338 219.073 165.224 218.669 165.058L219.333 165.338C219.117 165.244 218.909 165.133 218.71 165.006C218.61 164.94 218.3 164.706 218.705 165.015C219.125 165.336 218.759 165.042 218.672 164.957C218.6 164.886 218.535 164.808 218.465 164.736C218.138 164.4 218.834 165.314 218.612 164.921C218.493 164.724 218.384 164.522 218.286 164.314L218.567 164.979C218.439 164.662 218.348 164.332 218.297 163.994L218.396 164.735C218.343 164.315 218.343 163.89 218.395 163.471L218.295 164.211C218.363 163.742 218.487 163.284 218.664 162.845L218.384 163.51C218.507 163.215 218.654 162.929 218.821 162.657C218.898 162.516 218.988 162.382 219.091 162.259C219.109 162.265 218.621 162.82 218.88 162.54C218.948 162.467 219.011 162.389 219.08 162.316C219.19 162.2 219.307 162.093 219.423 161.983C219.81 161.614 218.881 162.342 219.328 162.05C219.652 161.836 219.993 161.65 220.348 161.493L219.683 161.774C220.277 161.53 220.9 161.363 221.536 161.276L220.796 161.376C221.593 161.284 222.398 161.294 223.192 161.404L222.453 161.305C223.459 161.457 224.442 161.734 225.38 162.129L224.715 161.848C226.714 162.707 228.485 163.982 230.252 165.233C231.959 166.47 233.757 167.575 235.632 168.539C239.664 170.545 244.005 171.859 248.472 172.426C254.879 173.212 261.381 172.374 267.38 169.991C273.38 167.607 278.685 163.754 282.81 158.785C283.313 158.25 283.603 157.55 283.624 156.816C283.619 156.079 283.327 155.373 282.81 154.848C281.789 153.91 279.861 153.645 278.876 154.848C277.942 155.989 276.938 157.071 275.869 158.087C275.371 158.56 274.859 159.019 274.333 159.464C274.033 159.718 273.729 159.967 273.42 160.21C273.275 160.326 272.82 160.633 273.518 160.137C273.358 160.251 273.205 160.375 273.047 160.492C270.711 162.215 268.18 163.656 265.506 164.784L266.171 164.504C263.301 165.708 260.288 166.534 257.206 166.962L257.946 166.862C254.775 167.28 251.563 167.275 248.394 166.848L249.134 166.948C245.965 166.512 242.866 165.667 239.915 164.435L240.579 164.715C237.731 163.454 235.028 161.887 232.518 160.042C231.211 159.073 229.834 158.206 228.396 157.445C226.722 156.59 224.909 156.038 223.042 155.817C219.541 155.404 215.974 156.769 214.049 159.796C212.278 162.581 212.301 166.567 214.781 168.936C217.336 171.376 221.204 171.355 224.215 169.829C227.114 168.359 228.856 165.306 230.08 162.427C232.836 155.948 235.276 149.319 237.55 142.657C239.799 136.065 241.838 129.407 243.668 122.682C243.895 121.849 244.118 121.016 244.339 120.181C244.71 118.775 243.871 117.093 242.396 116.756C241.685 116.573 240.931 116.674 240.292 117.036C239.654 117.399 239.181 117.996 238.974 118.701Z" fill="#3F3D56"/>
<path d="M266.728 117.928L265.727 153.485L264.731 188.857L264.168 208.857C264.174 209.594 264.469 210.298 264.99 210.819C265.51 211.34 266.214 211.635 266.95 211.641C267.683 211.627 268.382 211.329 268.901 210.81C269.419 210.291 269.717 209.591 269.731 208.857L270.732 173.301L271.728 137.929L272.291 117.928C272.285 117.192 271.99 116.488 271.47 115.967C270.95 115.446 270.246 115.151 269.51 115.145C268.777 115.159 268.077 115.457 267.559 115.976C267.04 116.495 266.742 117.195 266.728 117.928Z" fill="#3F3D56"/>
<path opacity="0.2" d="M170.45 198.93H171.313V159.569H191.462V158.707H171.313V142.098H186.874C186.645 141.808 186.411 141.521 186.169 141.238H171.313V130.269C171.028 130.147 170.74 130.03 170.45 129.919V141.238H153.518V127.184C153.228 127.197 152.943 127.217 152.655 127.241V141.238H139.147V130.752C138.857 130.881 138.572 131.016 138.288 131.158V141.238H126.934V142.098H138.288V158.707H126.934V159.569H138.288V198.93H139.147V159.569C140.921 159.569 142.678 159.918 144.317 160.597C145.956 161.277 147.445 162.272 148.699 163.528C149.954 164.783 150.949 166.274 151.627 167.914C152.306 169.554 152.655 171.312 152.655 173.088V198.93H153.518V159.569H170.45V198.93ZM139.147 158.707V142.098H152.655V158.707H139.147ZM153.518 158.707V142.098H153.857C156.036 142.099 158.194 142.528 160.207 143.363C162.22 144.198 164.05 145.421 165.59 146.963C167.131 148.506 168.353 150.336 169.187 152.351C170.021 154.366 170.45 156.526 170.45 158.707H153.518Z" fill="black"/>
<path d="M165.176 187.128C164.088 191.983 161.484 196.364 157.74 199.637C157.465 199.875 157.191 200.105 156.905 200.331C156.212 200.394 155.523 200.459 154.839 200.524C154.272 200.576 153.712 200.632 153.156 200.684L153.055 200.695L152.985 200.086L152.703 197.622C151.61 195.835 150.932 193.825 150.72 191.741C150.508 189.656 150.768 187.551 151.479 185.58C152.458 182.938 154.231 180.603 155.974 178.287C158.381 175.087 160.721 171.925 160.807 168.023C161.991 169.54 162.976 171.203 163.737 172.971C163.019 173.31 162.374 173.785 161.838 174.371C161.686 174.538 161.534 174.772 161.637 174.972C161.726 175.143 161.949 175.184 162.142 175.206C162.605 175.254 163.073 175.302 163.536 175.351C163.907 175.391 164.278 175.429 164.649 175.469C165.098 176.943 165.402 178.457 165.558 179.99C165.808 182.375 165.679 184.784 165.176 187.128Z" fill="#3F3D56"/>
<path d="M177.488 177.399C175.3 178.991 174.02 181.281 173.027 183.805C172.008 184.132 171.091 184.718 170.367 185.505C170.215 185.672 170.063 185.906 170.167 186.107C170.256 186.278 170.479 186.318 170.671 186.341C171.135 186.389 171.602 186.437 172.066 186.485C171.072 189.47 170.16 192.558 168.402 195.078C167.233 196.742 165.709 198.125 163.94 199.128C163.458 199.403 162.96 199.649 162.449 199.866C160.565 200.011 158.717 200.166 156.905 200.33C156.211 200.394 155.523 200.458 154.839 200.523C154.271 200.575 153.711 200.631 153.155 200.683C153.151 200.479 153.151 200.275 153.155 200.071C153.272 194.632 155.271 189.403 158.811 185.275C158.978 185.082 159.148 184.893 159.323 184.704C161.116 182.787 163.225 181.192 165.557 179.99C169.232 178.077 173.351 177.183 177.488 177.399Z" fill="#E21221"/>
<path d="M155.481 198.62L155.055 199.882L154.839 200.524C154.272 200.576 153.712 200.632 153.156 200.684L153.056 200.695C152.44 200.758 151.828 200.821 151.216 200.884C151.057 200.698 150.897 200.509 150.741 200.316C146.87 195.624 145.012 189.59 145.573 183.531C146.134 177.473 149.068 171.882 153.734 167.982C153.245 170.547 153.816 173.005 154.754 175.443C154.654 175.484 154.558 175.525 154.465 175.569C153.747 175.908 153.102 176.383 152.566 176.969C152.414 177.136 152.262 177.37 152.366 177.57C152.455 177.741 152.677 177.782 152.87 177.804C153.334 177.852 153.801 177.9 154.265 177.949C154.635 177.989 155.006 178.027 155.377 178.067C155.552 178.086 155.726 178.105 155.9 178.123C155.926 178.179 155.948 178.231 155.974 178.286C157.031 180.58 158.17 182.885 158.811 185.276C158.972 185.876 159.099 186.484 159.19 187.098C159.475 189.174 159.29 191.288 158.648 193.282C158.006 195.277 156.924 197.101 155.481 198.62Z" fill="#E21221"/>
<path d="M192.812 144.784C189.619 138.551 184.672 133.306 178.855 129.453C173.019 125.604 166.322 123.26 159.361 122.63C158.448 122.547 157.534 122.499 156.617 122.484C155.533 122.468 139.235 127.173 133.776 131.015C128.319 134.81 123.83 139.836 120.672 145.687C117.518 151.57 115.968 158.179 116.175 164.852C116.445 171.565 118.314 178.116 121.627 183.959C124.895 189.783 129.535 194.72 135.144 198.341C140.832 201.973 146.546 211.605 153.262 211.945C160.029 212.288 167.747 203.202 173.918 200.443C180.09 197.662 185.426 193.31 189.393 187.821C193.249 182.443 195.743 176.208 196.662 169.653C197.616 162.941 197.172 156.018 194.881 149.603C194.294 147.954 193.602 146.345 192.812 144.784C192.152 143.483 190.217 143.004 189.006 143.785C188.382 144.17 187.93 144.78 187.744 145.489C187.559 146.199 187.653 146.952 188.008 147.594C188.396 148.358 188.756 149.135 189.089 149.924L188.809 149.259C190.07 152.293 190.927 155.48 191.359 158.738L191.26 157.998C191.719 161.533 191.711 165.112 191.235 168.645L191.335 167.905C190.854 171.437 189.912 174.89 188.533 178.177L188.813 177.512C188.104 179.189 187.277 180.813 186.339 182.374C185.864 183.162 185.359 183.932 184.826 184.683C184.591 185.013 184.35 185.337 184.107 185.66C183.789 186.081 184.539 185.109 184.211 185.522C184.155 185.593 184.1 185.664 184.044 185.734C183.875 185.945 183.704 186.153 183.531 186.36C182.375 187.741 181.113 189.03 179.757 190.214C179.419 190.509 179.076 190.798 178.727 191.08C178.553 191.22 178.381 191.367 178.2 191.497C178.207 191.492 178.786 191.052 178.443 191.307C178.335 191.388 178.228 191.469 178.12 191.549C177.401 192.083 176.662 192.589 175.905 193.068C174.16 194.168 172.33 195.126 170.432 195.931L171.097 195.651C167.823 197.03 164.381 197.973 160.862 198.454L161.601 198.354C158.083 198.83 154.518 198.836 150.998 198.373L151.738 198.472C148.539 198.043 145.41 197.196 142.431 195.954L143.095 196.235C141.369 195.506 139.705 194.638 138.119 193.64C137.335 193.145 136.57 192.619 135.826 192.063C135.72 191.984 135.615 191.904 135.509 191.824C135.169 191.567 135.753 192.013 135.758 192.016C135.56 191.874 135.37 191.723 135.188 191.561C134.829 191.268 134.475 190.969 134.127 190.662C132.734 189.435 131.433 188.106 130.235 186.687C129.935 186.332 129.642 185.972 129.355 185.607C129.231 185.449 129.004 185.128 129.505 185.803C129.439 185.714 129.371 185.627 129.304 185.539C129.144 185.327 128.986 185.113 128.831 184.898C128.286 184.143 127.768 183.37 127.278 182.579C126.169 180.788 125.201 178.913 124.383 176.971L124.663 177.636C123.325 174.449 122.41 171.1 121.941 167.675L122.04 168.415C121.617 165.258 121.611 162.058 122.022 158.899L121.923 159.639C122.344 156.58 123.167 153.59 124.369 150.746L124.088 151.411C124.845 149.631 125.737 147.911 126.757 146.268C127.267 145.446 127.809 144.643 128.38 143.861C128.51 143.683 128.642 143.507 128.774 143.331C128.895 143.172 129.225 142.777 128.661 143.475C128.716 143.407 128.77 143.336 128.824 143.267C129.138 142.869 129.459 142.478 129.788 142.092C131.034 140.633 132.382 139.266 133.825 138.002C134.189 137.682 134.559 137.369 134.935 137.063C135.106 136.924 135.278 136.786 135.451 136.65C135.52 136.595 135.59 136.542 135.659 136.487C134.919 137.077 135.453 136.648 135.622 136.522C136.397 135.94 137.192 135.388 138.008 134.866C139.823 133.704 141.732 132.697 143.715 131.856L143.05 132.137C145.928 130.927 158.679 128.073 160.998 128.384L160.259 128.285C163.668 128.761 166.999 129.682 170.169 131.025L169.504 130.744C171.11 131.427 172.671 132.211 174.177 133.094C174.93 133.535 175.667 134.001 176.39 134.49C176.733 134.722 177.071 134.959 177.406 135.201C177.573 135.322 177.74 135.444 177.905 135.568C177.997 135.637 178.088 135.706 178.18 135.775C178.566 136.064 177.649 135.356 178.053 135.676C179.406 136.739 180.69 137.887 181.898 139.111C182.492 139.716 183.065 140.34 183.618 140.983C183.902 141.314 184.179 141.649 184.451 141.988C184.586 142.157 185.047 142.768 184.483 142.02C184.62 142.203 184.76 142.384 184.896 142.569C186.068 144.156 187.109 145.837 188.008 147.594C188.673 148.892 190.599 149.376 191.814 148.593C192.438 148.208 192.89 147.598 193.076 146.888C193.262 146.179 193.167 145.425 192.812 144.784Z" fill="#3F3D56"/>
<path d="M160.401 190.215C160.114 190.228 159.83 190.152 159.587 189.999C159.344 189.845 159.154 189.62 159.043 189.354C158.932 189.089 158.906 188.796 158.967 188.515C159.028 188.234 159.174 187.978 159.385 187.783C159.42 187.642 159.446 187.541 159.481 187.401C159.468 187.37 159.456 187.34 159.443 187.309C158.152 184.229 149.917 192.815 149.561 195.71C149.404 196.989 149.47 198.286 149.756 199.543C147.089 193.719 145.704 187.389 145.695 180.983C145.694 179.375 145.784 177.769 145.962 176.171C146.11 174.861 146.315 173.561 146.577 172.27C148.006 165.264 151.076 158.698 155.534 153.111C158.083 153.253 160.317 152.864 160.533 147.919C160.571 147.04 161.223 146.278 161.367 145.412C161.124 145.444 160.876 145.464 160.633 145.48C160.557 145.484 160.477 145.488 160.401 145.492L160.373 145.493C160.105 145.505 159.84 145.439 159.609 145.304C159.378 145.169 159.191 144.969 159.07 144.73C158.95 144.491 158.901 144.222 158.93 143.955C158.958 143.689 159.063 143.436 159.232 143.228C159.337 143.099 159.442 142.969 159.548 142.84C159.707 142.641 159.871 142.445 160.03 142.245C160.049 142.226 160.066 142.206 160.082 142.185C160.266 141.958 160.449 141.734 160.633 141.506C160.298 140.986 159.847 140.55 159.316 140.233C157.477 139.155 154.939 139.901 153.611 141.566C152.278 143.231 152.027 145.568 152.49 147.648C152.945 149.418 153.698 151.098 154.716 152.615C154.616 152.743 154.512 152.867 154.413 152.995C152.589 155.341 151 157.861 149.668 160.518C150.045 157.571 145.436 146.93 143.653 144.676C141.512 141.968 137.122 143.15 136.744 146.582C136.741 146.615 136.737 146.648 136.734 146.682C136.998 146.831 137.258 146.99 137.511 147.158C137.83 147.371 138.077 147.675 138.219 148.031C138.362 148.387 138.394 148.777 138.311 149.152C138.228 149.526 138.035 149.867 137.755 150.129C137.475 150.391 137.123 150.562 136.745 150.621L136.706 150.627C133.162 155.691 144.523 168.872 147.367 165.913C146.028 169.709 145.189 173.663 144.869 177.676C144.688 180.044 144.699 182.422 144.901 184.788L144.889 184.704C144.257 179.551 133.417 171.89 130.252 172.528C128.428 172.896 126.632 172.812 126.909 174.653C126.914 174.683 126.918 174.712 126.923 174.741C127.414 174.942 127.892 175.172 128.355 175.432C128.62 175.582 128.879 175.74 129.133 175.908C129.451 176.121 129.698 176.426 129.841 176.781C129.983 177.137 130.016 177.528 129.933 177.902C129.85 178.277 129.656 178.617 129.376 178.879C129.097 179.142 128.745 179.313 128.366 179.372L128.327 179.377C128.299 179.381 128.275 179.385 128.247 179.39C126.634 184.945 138.597 193.91 145.87 191.057H145.874C146.595 194.192 147.639 197.243 148.99 200.162H160.122C160.162 200.038 160.198 199.91 160.234 199.786C159.203 199.851 158.169 199.79 157.154 199.603C157.98 198.589 158.805 197.566 159.631 196.552C159.65 196.533 159.667 196.513 159.683 196.492C160.102 195.973 160.525 195.458 160.944 194.939L160.944 194.938C160.967 193.347 160.784 191.759 160.401 190.215L160.401 190.215ZM147.654 165.118L147.66 165.11L147.654 165.126V165.118ZM145.188 187.364L145.092 187.148C145.096 186.992 145.096 186.837 145.092 186.677C145.092 186.633 145.084 186.589 145.084 186.545C145.12 186.821 145.152 187.096 145.192 187.372L145.188 187.364Z" fill="#3F3D56"/>
<path d="M35.3257 167.032C37.5788 167.032 39.4053 165.204 39.4053 162.949C39.4053 160.694 37.5788 158.866 35.3257 158.866C33.0726 158.866 31.2461 160.694 31.2461 162.949C31.2461 165.204 33.0726 167.032 35.3257 167.032Z" fill="#3F3D56"/>
<path d="M84.2808 211.574C86.5339 211.574 88.3604 209.746 88.3604 207.491C88.3604 205.236 86.5339 203.408 84.2808 203.408C82.0277 203.408 80.2012 205.236 80.2012 207.491C80.2012 209.746 82.0277 211.574 84.2808 211.574Z" fill="#3F3D56"/>
<path d="M270.087 211.574C272.341 211.574 274.167 209.746 274.167 207.491C274.167 205.236 272.341 203.408 270.087 203.408C267.834 203.408 266.008 205.236 266.008 207.491C266.008 209.746 267.834 211.574 270.087 211.574Z" fill="#3F3D56"/>
<path d="M280.101 159.608C282.354 159.608 284.181 157.78 284.181 155.525C284.181 153.27 282.354 151.442 280.101 151.442C277.848 151.442 276.021 153.27 276.021 155.525C276.021 157.78 277.848 159.608 280.101 159.608Z" fill="#3F3D56"/>
<path d="M268.234 121.748C270.487 121.748 272.314 119.92 272.314 117.665C272.314 115.41 270.487 113.582 268.234 113.582C265.981 113.582 264.154 115.41 264.154 117.665C264.154 119.92 265.981 121.748 268.234 121.748Z" fill="#3F3D56"/>
<path d="M98.0042 155.525C98.0018 156.568 97.5988 157.57 96.8786 158.324C96.1585 159.078 95.1764 159.525 94.1354 159.575C93.0945 159.624 92.0745 159.271 91.2865 158.589C90.4984 157.906 90.0027 156.947 89.9019 155.909C89.801 154.87 90.1028 153.833 90.7447 153.012C91.3867 152.19 92.3196 151.647 93.3505 151.495C94.3815 151.342 95.4314 151.593 96.2832 152.194C97.1349 152.794 97.7232 153.7 97.9263 154.723C97.9786 154.987 98.0047 155.256 98.0042 155.525Z" fill="#3F3D56"/>
<path d="M179.595 133.625C181.848 133.625 183.675 131.797 183.675 129.542C183.675 127.287 181.848 125.459 179.595 125.459C177.342 125.459 175.516 127.287 175.516 129.542C175.516 131.797 177.342 133.625 179.595 133.625Z" fill="#3F3D56"/>
<path d="M139.17 129.542C139.168 130.585 138.765 131.587 138.045 132.341C137.325 133.095 136.342 133.543 135.301 133.592C134.261 133.642 133.241 133.289 132.453 132.606C131.664 131.924 131.169 130.964 131.068 129.926C130.967 128.888 131.269 127.851 131.911 127.029C132.553 126.208 133.486 125.665 134.517 125.512C135.547 125.36 136.597 125.61 137.449 126.211C138.301 126.812 138.889 127.718 139.092 128.741C139.145 129.005 139.171 129.273 139.17 129.542Z" fill="#3F3D56"/>
<path d="M86.5062 117.664C86.5037 118.707 86.1007 119.709 85.3806 120.463C84.6605 121.217 83.6783 121.665 82.6374 121.714C81.5965 121.764 80.5765 121.411 79.7884 120.728C79.0004 120.046 78.5047 119.086 78.4038 118.048C78.303 117.01 78.6048 115.973 79.2467 115.151C79.8886 114.33 80.8216 113.787 81.8525 113.634C82.8834 113.482 83.9334 113.732 84.7851 114.333C85.6368 114.934 86.2251 115.84 86.4283 116.863C86.4806 117.127 86.5067 117.395 86.5062 117.664Z" fill="#3F3D56"/>
<path d="M222.246 168.517C224.499 168.517 226.325 166.689 226.325 164.434C226.325 162.179 224.499 160.351 222.246 160.351C219.993 160.351 218.166 162.179 218.166 164.434C218.166 166.689 219.993 168.517 222.246 168.517Z" fill="#3F3D56"/>
<path d="M158.084 131.398C161.362 131.398 164.018 128.739 164.018 125.459C164.018 122.179 161.362 119.521 158.084 119.521C154.807 119.521 152.15 122.179 152.15 125.459C152.15 128.739 154.807 131.398 158.084 131.398Z" fill="#3F3D56"/>
<path d="M318.558 211.886L0.441589 212C0.383599 212 0.326174 211.989 0.272598 211.966C0.219022 211.944 0.170344 211.912 0.129338 211.87C0.0883327 211.829 0.0558014 211.781 0.0336093 211.727C0.0114172 211.674 0 211.616 0 211.558C0 211.5 0.0114172 211.442 0.0336093 211.389C0.0558014 211.335 0.0883327 211.287 0.129338 211.245C0.170344 211.204 0.219022 211.172 0.272598 211.15C0.326174 211.127 0.383599 211.116 0.441589 211.116L318.558 211.002C318.675 211.002 318.787 211.049 318.87 211.132C318.952 211.215 318.999 211.327 318.999 211.444C318.999 211.561 318.952 211.673 318.87 211.756C318.787 211.839 318.675 211.886 318.558 211.886Z" fill="#CACACA"/>
</g>
<defs>
<clipPath id="clip0_916_17">
<rect width="319" height="212" fill="white"/>
</clipPath>
</defs>
</svg>
