<svg width="413" height="609" viewBox="0 0 413 609" fill="none" xmlns="http://www.w3.org/2000/svg">
<g clip-path="url(#clip0_1128_2)">
<path d="M360.298 608.19H167.178C138.538 608.19 115.238 584.89 115.238 556.25V51.94C115.238 23.3 138.538 0 167.178 0H360.298C388.938 0 412.238 23.3 412.238 51.94V556.25C412.238 584.89 388.938 608.19 360.298 608.19ZM167.178 2C139.638 2 117.238 24.4 117.238 51.94V556.25C117.238 583.79 139.638 606.19 167.178 606.19H360.298C387.838 606.19 410.238 583.79 410.238 556.25V51.94C410.238 24.4 387.838 2 360.298 2H167.178Z" fill="#DEDFE0"/>
<path d="M291.089 47.3597H236.399C229.179 47.3597 223.309 41.4897 223.309 34.2697C223.309 27.0497 229.179 21.1797 236.399 21.1797H291.089C298.309 21.1797 304.179 27.0497 304.179 34.2697C304.179 41.4897 298.309 47.3597 291.089 47.3597Z" fill="#DADBDC"/>
<path d="M215.08 607.14C215.08 607.68 214.64 608.12 214.1 608.12H0.98C0.44 608.12 0 607.68 0 607.14C0 606.6 0.44 606.16 0.98 606.16H214.1C214.64 606.16 215.08 606.6 215.08 607.14Z" fill="#3F3D58"/>
<path d="M119.16 304.11L138.81 310.57V282.29H120.98L119.16 304.11Z" fill="#F6AAAE"/>
<path d="M136.369 290.12C147.183 290.12 155.949 281.354 155.949 270.54C155.949 259.726 147.183 250.96 136.369 250.96C125.555 250.96 116.789 259.726 116.789 270.54C116.789 281.354 125.555 290.12 136.369 290.12Z" fill="#F6AAAE"/>
<path d="M131.391 272.07L134.091 275.35L138.971 266.81C138.971 266.81 145.201 267.13 145.201 262.51C145.201 257.89 150.921 257.76 150.921 257.76C150.921 257.76 159.011 243.63 142.251 247.35C142.251 247.35 130.621 239.38 124.841 246.19C124.841 246.19 107.111 255.12 112.181 270.67L120.611 286.69L122.521 283.06C122.521 283.06 121.361 267.83 131.391 272.07Z" fill="#2F2E43"/>
<path d="M129.57 572.09H113.75V594.53H129.57V572.09Z" fill="#F6AAAE"/>
<path d="M127.83 607.39C125.12 607.64 111.59 608.7 110.91 605.6C110.29 602.75 111.2 599.77 111.33 599.37C112.63 586.43 113.11 586.28 113.4 586.19C113.86 586.06 115.21 586.69 117.39 588.1L117.53 588.19L117.56 588.35C117.6 588.55 118.57 593.3 123.15 592.58C126.29 592.08 127.31 591.39 127.64 591.05C127.37 590.93 127.04 590.72 126.81 590.35C126.47 589.82 126.41 589.14 126.63 588.33C127.22 586.18 128.99 583 129.06 582.87L129.26 582.51L147.24 594.64L158.34 597.81C159.18 598.05 159.85 598.65 160.19 599.45C160.66 600.57 160.37 601.87 159.47 602.68C157.45 604.49 153.45 607.6 149.24 607.98C148.12 608.08 146.64 608.12 144.98 608.12C138.03 608.12 127.9 607.4 127.82 607.39L127.83 607.39Z" fill="#2F2E43"/>
<path d="M80.2257 538.39L65.9219 555.681L78.1114 565.765L92.4152 548.474L80.2257 538.39Z" fill="#F6AAAE"/>
<path d="M68.5886 574.58C66.3486 573.04 55.2386 565.24 56.6886 562.42C58.0286 559.83 60.6286 558.12 60.9886 557.89C70.2386 548.75 70.7086 548.94 70.9886 549.06C71.4286 549.25 72.0586 550.6 72.8486 553.07L72.8986 553.22L72.8186 553.36C72.7186 553.54 70.4386 557.82 74.4286 560.18C77.1686 561.8 78.3986 561.91 78.8586 561.86C78.7286 561.6 78.6086 561.22 78.6586 560.79C78.7286 560.17 79.1186 559.6 79.8186 559.12C81.6486 557.84 85.0286 556.52 85.1786 556.46L85.5586 556.31L91.6786 577.12L98.2086 586.64C98.6986 587.36 98.8386 588.25 98.5886 589.09C98.2386 590.25 97.1886 591.07 95.9686 591.12C93.2586 591.23 88.1986 591.07 84.7086 588.68C83.7886 588.05 82.6186 587.14 81.3386 586.08C75.9886 581.65 68.6386 574.64 68.5786 574.58L68.5886 574.58Z" fill="#2F2E43"/>
<path d="M155.74 399.02H101.48L113.54 578.38H131.63L155.75 399.02L155.74 399.02Z" fill="#2F2E43"/>
<path d="M144.692 408.9L155.742 399.02L150.212 497.66L88.4117 556.44L73.0117 543.71L109.012 496.99L144.692 408.9Z" fill="#2F2E43"/>
<path d="M144.689 293.51L117.889 289.16L109.569 303.71C98.9885 322.21 94.6785 343.63 97.2685 364.78L101.479 399.03H155.739L144.689 293.52L144.689 293.51Z" fill="#DADBDC"/>
<path d="M122.931 431.31C124.041 436.84 121.971 441.89 118.321 442.59C114.661 443.28 110.801 439.36 109.691 433.82C109.221 431.61 109.301 429.33 109.931 427.16L105.531 403.65L117.031 401.86L120.141 425.23C121.561 427.02 122.521 429.1 122.931 431.32V431.31Z" fill="#F6AAAE"/>
<path d="M108.941 424.94L92.0508 372.76V372.68L98.4308 318.95C99.4108 310.72 106.391 304.52 114.671 304.52C119.741 304.52 124.441 306.81 127.561 310.81C130.681 314.81 131.771 319.92 130.541 324.85L119.271 369.92L121.961 421.07L108.931 424.94L108.941 424.94Z" fill="#DADBDC"/>
<path d="M205.569 310.29C210.259 335.34 234.369 351.85 259.429 347.15C267.009 345.73 273.809 342.53 279.469 338.06L336.469 399.54C339.959 403.3 345.909 403.29 349.389 399.51C352.639 395.98 352.459 390.5 348.979 387.19L288.079 329.15C295.399 319.21 298.739 306.38 296.289 293.29C291.599 268.24 267.489 251.73 242.429 256.43C217.369 261.13 200.869 285.23 205.569 310.29ZM215.409 308.45C211.739 288.83 224.659 269.95 244.279 266.28C263.899 262.61 282.779 275.53 286.449 295.15C290.119 314.77 277.199 333.65 257.579 337.32C237.959 340.99 219.079 328.07 215.409 308.45Z" fill="#EE2211"/>
</g>
<defs>
<clipPath id="clip0_1128_2">
<rect width="412.24" height="608.19" fill="white"/>
</clipPath>
</defs>
</svg>
